<mxfile host="app.diagrams.net" modified="2023-05-29T10:58:52.310Z" agent="Mozilla/5.0 (Windows NT 10.0; Win64; x64) AppleWebKit/537.36 (KHTML, like Gecko) Chrome/113.0.0.0 Safari/537.36" version="21.3.5" etag="_C-VHaqIFVtycVRaB6oQ" type="github">
  <diagram name="Page-1" id="Q7l8q0h_zOfylx8JE-fu">
    <mxGraphModel>
      <root>
        <mxCell id="0" />
        <mxCell id="1" parent="0" />
      </root>
    </mxGraphModel>
  </diagram>
</mxfile>
